<svg xmlns="http://www.w3.org/2000/svg" width="1440" height="1024" preserveAspectRatio="xMidYMid" viewBox="0 0 1440 1024" style="animation-play-state:paused;background-color:rgb(221, 221, 221);z-index:1"><style>.a{animation-play-state:paused;}.b{animation-play-state:paused;fill:#f2f6f9;stroke:#f2f6f9;}.c{animation-play-state:paused;fill:#f2f7f9;stroke:#f2f7f9;}.d{animation-play-state:paused;fill:#f3f4f6;stroke:#f3f4f6;}.e{animation-play-state:paused;fill:#f1f9fa;stroke:#f1f9fa;}.f{animation-play-state:paused;fill:#f3f6f8;stroke:#f3f6f8;}.g{animation-play-state:paused;fill:#f3f5f7;stroke:#f3f5f7;}.h{animation-play-state:paused;fill:#f1f8fa;stroke:#f1f8fa;}.i{animation-play-state:paused;fill:#f4f5f7;stroke:#f4f5f7;}.j{animation-play-state:paused;fill:#f6f7f8;stroke:#f6f7f8;}.k{animation-play-state:paused;fill:#f6f7f9;stroke:#f6f7f9;}.l{animation-play-state:paused;fill:#f2f6f8;stroke:#f2f6f8;}.m{animation-play-state:paused;fill:#f7f8fa;stroke:#f7f8fa;}.n{animation-play-state:paused;fill:#f5f6f8;stroke:#f5f6f8;}.o{animation-play-state:paused;fill:#fafafa;stroke:#fafafa;}.p{animation-play-state:paused;fill:#f7f8f9;stroke:#f7f8f9;}.q{animation-play-state:paused;fill:#f2f8fa;stroke:#f2f8fa;}.r{animation-play-state:paused;fill:#f3f5f8;stroke:#f3f5f8;}.s{animation-play-state:paused;fill:#fbfbfb;stroke:#fbfbfb;}.t{animation-play-state:paused;fill:#f8f9fb;stroke:#f8f9fb;}.u{animation-play-state:paused;fill:#f5f6f7;stroke:#f5f6f7;}.v{animation-play-state:paused;fill:#f9fafb;stroke:#f9fafb;}.w{animation-play-state:paused;fill:#f8f9fa;stroke:#f8f9fa;}.x{animation-play-state:paused;fill:#fefefe;stroke:#fefefe;}.y{animation-play-state:paused;fill:#fcfcfc;stroke:#fcfcfc;}.z{animation-play-state:paused;fill:#fdfdfd;stroke:#fdfdfd;}.A{animation-play-state:paused;fill:#fff;stroke:#fff;}</style><g transform="translate(720 512)scale(1 1)translate(-720 -512)" class="a"><g id="bk-0.4051140518046147" class="a"><path d="M791 658L636 724 741 829z" class="b"/><path d="M636 724L598 909 741 829z" class="c"/><path d="M791 658L519 386 636 724z" class="d"/><path d="M802 1112L989 855 741 829z" class="e"/><path d="M741 829L989 855 791 658z" class="c"/><path d="M791 658L1079 724 831 476z" class="f"/><path d="M989 855L1079 724 791 658z" style="animation-play-state:paused;fill:#f2f7fa;stroke:#f2f7fa"/><path d="M349 660L408 940 636 724z" class="g"/><path d="M636 724L408 940 598 909z" class="b"/><path d="M598 909L802 1112 741 829z" class="h"/><path d="M577 1109L802 1112 598 909z" class="e"/><path d="M519 386L349 660 636 724z" class="i"/><path d="M408 940L577 1109 598 909z" class="c"/><path d="M831 476L519 386 791 658z" style="animation-play-state:paused;fill:#f4f5f6;stroke:#f4f5f6"/><path d="M1079 724L976 399 831 476z" class="g"/><path d="M831 476L612 257 519 386z" class="j"/><path d="M802 1112L999 1088 989 855z" class="e"/><path d="M989 855L1242 886 1079 724z" class="e"/><path d="M772 194L612 257 831 476z" class="k"/><path d="M1242 886L1216 639 1079 724z" class="h"/><path d="M1079 724L1216 639 976 399z" class="l"/><path d="M519 386L322 411 349 660z" class="j"/><path d="M391 258L322 411 519 386z" class="m"/><path d="M408 940L362 1117 577 1109z" class="c"/><path d="M577 1109L766 1299 802 1112z" class="e"/><path d="M170 925L362 1117 408 940z" class="l"/><path d="M170 925L408 940 349 660z" class="g"/><path d="M1193 1059L1242 886 989 855z" class="e"/><path d="M976 399L772 194 831 476z" class="n"/><path d="M999 1088L1193 1059 989 855z" class="e"/><path d="M618 1373L766 1299 577 1109z" class="e"/><path d="M802 1112L766 1299 999 1088z" class="e"/><path d="M999 1088L1216 1305 1193 1059z" class="e"/><path d="M579 2L391 258 612 257z" class="o"/><path d="M612 257L391 258 519 386z" style="animation-play-state:paused;fill:#f7f9fa;stroke:#f7f9fa"/><path d="M137 670L170 925 349 660z" class="i"/><path d="M1216 639L1266 466 976 399z" class="g"/><path d="M976 399L985 186 772 194z" class="k"/><path d="M1426 627L1266 466 1216 639z" class="b"/><path d="M79 390L137 670 322 411z" class="p"/><path d="M322 411L137 670 349 660z" class="n"/><path d="M1203 182L985 186 976 399z" class="j"/><path d="M321 1297L618 1373 577 1109z" class="e"/><path d="M170 925L196 1173 362 1117z" class="f"/><path d="M362 1117L321 1297 577 1109z" class="q"/><path d="M156 1355L196 1173 -70 1129z" class="r"/><path d="M196 1173L321 1297 362 1117z" class="c"/><path d="M1517 940L1426 627 1242 886z" class="e"/><path d="M1242 886L1426 627 1216 639z" class="h"/><path d="M1266 466L1203 182 976 399z" class="i"/><path d="M766 1299L1054 1365 999 1088z" class="e"/><path d="M1193 1059L1424 1069 1242 886z" class="e"/><path d="M618 1373L1054 1365 766 1299z" class="e"/><path d="M378 22L185 274 391 258z" class="s"/><path d="M391 258L185 274 322 411z" class="t"/><path d="M1447 204L1203 182 1266 466z" class="u"/><path d="M985 186L800 1 772 194z" class="v"/><path d="M772 194L579 2 612 257z" class="v"/><path d="M1061 40L800 1 985 186z" class="o"/><path d="M185 274L79 390 322 411z" class="t"/><path d="M-70 1129L196 1173 170 925z" class="g"/><path d="M800 1L579 2 772 194z" class="s"/><path d="M1054 1365L1216 1305 999 1088z" class="e"/><path d="M1203 182L1061 40 985 186z" class="w"/><path d="M1216 1305L1424 1069 1193 1059z" class="e"/><path d="M1426 627L1447 426 1266 466z" class="f"/><path d="M1203 182L1187-56 1061 40z" class="v"/><path d="M1626 604L1447 426 1426 627z" class="b"/><path d="M579 2L378 22 391 258z" class="s"/><path d="M-93 218L-96 436 79 390z" class="s"/><path d="M1424 1069L1517 940 1242 886z" class="e"/><path d="M321 1297L156 1355 618 1373z" class="q"/><path d="M196 1173L156 1355 321 1297z" class="b"/><path d="M-146 831L170 925 137 670z" class="i"/><path d="M-96 436L-114 641 137 670z" class="m"/><path d="M-93 218L79 390 185 274z" class="s"/><path d="M79 390L-96 436 137 670z" class="w"/><path d="M-265 933L-146 831 -340 636z" class="p"/><path d="M-114 641L-146 831 137 670z" class="k"/><path d="M1627 384L1447 204 1447 426z" style="animation-play-state:paused;fill:#f3f5f6;stroke:#f3f5f6"/><path d="M1447 426L1447 204 1266 466z" class="d"/><path d="M-146 831L-70 1129 170 925z" class="i"/><path d="M1517 940L1626 604 1426 627z" class="e"/><path d="M180-175L159 26 378 22z" class="x"/><path d="M378 22L159 26 185 274z" class="y"/><path d="M1495 30L1187-56 1203 182z" class="v"/><path d="M1061 40L1057-187 800 1z" class="y"/><path d="M575-224L416-161 579 2z" class="x"/><path d="M579 2L416-161 378 22z" class="z"/><path d="M575-224L579 2 800 1z" class="z"/><path d="M1447 204L1495 30 1203 182z" class="p"/><path d="M1626 604L1627 384 1447 426z" class="r"/><path d="M755-266L575-224 800 1z" class="x"/><path d="M159 26L-93 218 185 274z" class="y"/><path d="M-340 636L-146 831 -114 641z" class="m"/><path d="M1182-283L1057-187 1187-56z" class="z"/><path d="M1187-56L1057-187 1061 40z" class="y"/><path d="M1057-187L755-266 800 1z" class="z"/><path d="M1216 1305L1506 1372 1424 1069z" style="animation-play-state:paused;fill:#eef9fa;stroke:#eef9fa"/><path d="M1746 1169L1729 929 1517 940z" class="e"/><path d="M1517 940L1729 929 1626 604z" class="e"/><path d="M1054 1365L1506 1372 1216 1305z" style="animation-play-state:paused;fill:#eff9fa;stroke:#eff9fa"/><path d="M618 1373L1506 1372 1054 1365z" class="e"/><path d="M1746 1169L1517 940 1424 1069z" class="e"/><path d="M1626 604L1671 206 1627 384z" style="animation-play-state:paused;fill:#f3f4f7;stroke:#f3f4f7"/><path d="M-272 483L-114 641 -96 436z" class="v"/><path d="M-146 831L-265 933 -70 1129z" class="n"/><path d="M-70 1129L-111 1310 156 1355z" class="g"/><path d="M-259 1162L-111 1310 -70 1129z" class="i"/><path d="M-279 253L-272 483 -96 436z" class="s"/><path d="M1671 206L1495 30 1447 204z" class="p"/><path d="M416-161L180-175 378 22z" class="x"/><path d="M159 26L-79 10 -93 218z" class="z"/><path d="M575-224L180-175 416-161z" class="A"/><path d="M-93-226L180-175 575-224z" class="A"/><path d="M1506 1372L1644 1289 1424 1069z" style="animation-play-state:paused;fill:#ebf8f9;stroke:#ebf8f9"/><path d="M-272 483L-340 636 -114 641z" class="v"/><path d="M1729 929L1671 206 1626 604z" class="c"/><path d="M1627 384L1671 206 1447 204z" class="u"/><path d="M-340 636L-259 1162 -265 933z" class="k"/><path d="M-265 933L-259 1162 -70 1129z" class="u"/><path d="M180-175L-79 10 159 26z" class="A"/><path d="M-93 218L-279 253 -96 436z" class="y"/><path d="M-272 483L-279 253 -340 636z" class="s"/><path d="M1644 1289L1746 1169 1424 1069z" style="animation-play-state:paused;fill:#edf9fa;stroke:#edf9fa"/><path d="M1057-187L1182-283 755-266z" class="x"/><path d="M1465-222L1182-283 1187-56z" class="z"/><path d="M-268 42L-279 253 -93 218z" class="x"/><path d="M-340 636L-258 1384 -259 1162z" style="animation-play-state:paused;fill:#f5f7f8;stroke:#f5f7f8"/><path d="M-259 1162L-258 1384 -111 1310z" class="i"/><path d="M-111 1310L-258 1384 156 1355z" class="d"/><path d="M156 1355L-258 1384 618 1373z" class="b"/><path d="M618 1373L-258 1384 1506 1372z" class="e"/><path d="M1671 206L1678-10 1495 30z" class="w"/><path d="M1495 30L1465-222 1187-56z" class="s"/><path d="M1706-203L1678-10 1671 206z" class="o"/><path d="M1706-203L1671 206 1729 929z" class="i"/><path d="M1678-10L1465-222 1495 30z" class="s"/><path d="M-279 253L-367-278 -340 636z" class="x"/><path d="M-79 10L-268 42 -93 218z" class="x"/><path d="M-93-226L-268 42 -79 10z" class="A"/><path d="M755-266L-93-226 575-224z" class="A"/><path d="M180-175L-93-226 -79 10z" class="A"/><path d="M1746 1169L1706-203 1729 929z" class="q"/><path d="M1678-10L1706-203 1465-222z" class="y"/><path d="M1465-222L1706-203 1182-283z" class="z"/><path d="M755-266L-367-278 -93-226z" class="A"/><path d="M-93-226L-367-278 -268 42z" class="A"/><path d="M-268 42L-367-278 -279 253z" class="A"/><path d="M1182-283L-367-278 755-266z" class="A"/></g><style type="text/css" class="a">  #bk-0.4051140518046147 path { stroke-width: 1 }</style></g></svg>