<?xml version="1.0" encoding="utf-8"?><svg xmlns="http://www.w3.org/2000/svg" xmlns:xlink="http://www.w3.org/1999/xlink" width="1440" height="1024" preserveAspectRatio="xMidYMid" viewBox="0 0 1440 1024" style="z-index:1;display:block;background-color:rgb(221, 221, 221);animation-play-state:paused" ><g transform="translate(720,512) scale(1,1) translate(-720,-512)" style="animation-play-state:paused" ><g id="bk-0.4051140518046147" style="animation-play-state:paused" ><path d="M791 658L636 724L741 829z" stroke="#f2f6f9" fill="#f2f6f9" style="animation-play-state:paused" ></path>
<path d="M636 724L598 909L741 829z" stroke="#f2f7f9" fill="#f2f7f9" style="animation-play-state:paused" ></path>
<path d="M791 658L519 386L636 724z" stroke="#f3f4f6" fill="#f3f4f6" style="animation-play-state:paused" ></path>
<path d="M802 1112L989 855L741 829z" stroke="#f1f9fa" fill="#f1f9fa" style="animation-play-state:paused" ></path>
<path d="M741 829L989 855L791 658z" stroke="#f2f7f9" fill="#f2f7f9" style="animation-play-state:paused" ></path>
<path d="M791 658L1079 724L831 476z" stroke="#f3f6f8" fill="#f3f6f8" style="animation-play-state:paused" ></path>
<path d="M989 855L1079 724L791 658z" stroke="#f2f7fa" fill="#f2f7fa" style="animation-play-state:paused" ></path>
<path d="M349 660L408 940L636 724z" stroke="#f3f5f7" fill="#f3f5f7" style="animation-play-state:paused" ></path>
<path d="M636 724L408 940L598 909z" stroke="#f2f6f9" fill="#f2f6f9" style="animation-play-state:paused" ></path>
<path d="M598 909L802 1112L741 829z" stroke="#f1f8fa" fill="#f1f8fa" style="animation-play-state:paused" ></path>
<path d="M577 1109L802 1112L598 909z" stroke="#f1f9fa" fill="#f1f9fa" style="animation-play-state:paused" ></path>
<path d="M519 386L349 660L636 724z" stroke="#f4f5f7" fill="#f4f5f7" style="animation-play-state:paused" ></path>
<path d="M408 940L577 1109L598 909z" stroke="#f2f7f9" fill="#f2f7f9" style="animation-play-state:paused" ></path>
<path d="M831 476L519 386L791 658z" stroke="#f4f5f6" fill="#f4f5f6" style="animation-play-state:paused" ></path>
<path d="M1079 724L976 399L831 476z" stroke="#f3f5f7" fill="#f3f5f7" style="animation-play-state:paused" ></path>
<path d="M831 476L612 257L519 386z" stroke="#f6f7f8" fill="#f6f7f8" style="animation-play-state:paused" ></path>
<path d="M802 1112L999 1088L989 855z" stroke="#f1f9fa" fill="#f1f9fa" style="animation-play-state:paused" ></path>
<path d="M989 855L1242 886L1079 724z" stroke="#f1f9fa" fill="#f1f9fa" style="animation-play-state:paused" ></path>
<path d="M772 194L612 257L831 476z" stroke="#f6f7f9" fill="#f6f7f9" style="animation-play-state:paused" ></path>
<path d="M1242 886L1216 639L1079 724z" stroke="#f1f8fa" fill="#f1f8fa" style="animation-play-state:paused" ></path>
<path d="M1079 724L1216 639L976 399z" stroke="#f2f6f8" fill="#f2f6f8" style="animation-play-state:paused" ></path>
<path d="M519 386L322 411L349 660z" stroke="#f6f7f8" fill="#f6f7f8" style="animation-play-state:paused" ></path>
<path d="M391 258L322 411L519 386z" stroke="#f7f8fa" fill="#f7f8fa" style="animation-play-state:paused" ></path>
<path d="M408 940L362 1117L577 1109z" stroke="#f2f7f9" fill="#f2f7f9" style="animation-play-state:paused" ></path>
<path d="M577 1109L766 1299L802 1112z" stroke="#f1f9fa" fill="#f1f9fa" style="animation-play-state:paused" ></path>
<path d="M170 925L362 1117L408 940z" stroke="#f2f6f8" fill="#f2f6f8" style="animation-play-state:paused" ></path>
<path d="M170 925L408 940L349 660z" stroke="#f3f5f7" fill="#f3f5f7" style="animation-play-state:paused" ></path>
<path d="M1193 1059L1242 886L989 855z" stroke="#f1f9fa" fill="#f1f9fa" style="animation-play-state:paused" ></path>
<path d="M976 399L772 194L831 476z" stroke="#f5f6f8" fill="#f5f6f8" style="animation-play-state:paused" ></path>
<path d="M999 1088L1193 1059L989 855z" stroke="#f1f9fa" fill="#f1f9fa" style="animation-play-state:paused" ></path>
<path d="M618 1373L766 1299L577 1109z" stroke="#f1f9fa" fill="#f1f9fa" style="animation-play-state:paused" ></path>
<path d="M802 1112L766 1299L999 1088z" stroke="#f1f9fa" fill="#f1f9fa" style="animation-play-state:paused" ></path>
<path d="M999 1088L1216 1305L1193 1059z" stroke="#f1f9fa" fill="#f1f9fa" style="animation-play-state:paused" ></path>
<path d="M579 2L391 258L612 257z" stroke="#fafafa" fill="#fafafa" style="animation-play-state:paused" ></path>
<path d="M612 257L391 258L519 386z" stroke="#f7f9fa" fill="#f7f9fa" style="animation-play-state:paused" ></path>
<path d="M137 670L170 925L349 660z" stroke="#f4f5f7" fill="#f4f5f7" style="animation-play-state:paused" ></path>
<path d="M1216 639L1266 466L976 399z" stroke="#f3f5f7" fill="#f3f5f7" style="animation-play-state:paused" ></path>
<path d="M976 399L985 186L772 194z" stroke="#f6f7f9" fill="#f6f7f9" style="animation-play-state:paused" ></path>
<path d="M1426 627L1266 466L1216 639z" stroke="#f2f6f9" fill="#f2f6f9" style="animation-play-state:paused" ></path>
<path d="M79 390L137 670L322 411z" stroke="#f7f8f9" fill="#f7f8f9" style="animation-play-state:paused" ></path>
<path d="M322 411L137 670L349 660z" stroke="#f5f6f8" fill="#f5f6f8" style="animation-play-state:paused" ></path>
<path d="M1203 182L985 186L976 399z" stroke="#f6f7f8" fill="#f6f7f8" style="animation-play-state:paused" ></path>
<path d="M321 1297L618 1373L577 1109z" stroke="#f1f9fa" fill="#f1f9fa" style="animation-play-state:paused" ></path>
<path d="M170 925L196 1173L362 1117z" stroke="#f3f6f8" fill="#f3f6f8" style="animation-play-state:paused" ></path>
<path d="M362 1117L321 1297L577 1109z" stroke="#f2f8fa" fill="#f2f8fa" style="animation-play-state:paused" ></path>
<path d="M156 1355L196 1173L-70 1129z" stroke="#f3f5f8" fill="#f3f5f8" style="animation-play-state:paused" ></path>
<path d="M196 1173L321 1297L362 1117z" stroke="#f2f7f9" fill="#f2f7f9" style="animation-play-state:paused" ></path>
<path d="M1517 940L1426 627L1242 886z" stroke="#f1f9fa" fill="#f1f9fa" style="animation-play-state:paused" ></path>
<path d="M1242 886L1426 627L1216 639z" stroke="#f1f8fa" fill="#f1f8fa" style="animation-play-state:paused" ></path>
<path d="M1266 466L1203 182L976 399z" stroke="#f4f5f7" fill="#f4f5f7" style="animation-play-state:paused" ></path>
<path d="M766 1299L1054 1365L999 1088z" stroke="#f1f9fa" fill="#f1f9fa" style="animation-play-state:paused" ></path>
<path d="M1193 1059L1424 1069L1242 886z" stroke="#f1f9fa" fill="#f1f9fa" style="animation-play-state:paused" ></path>
<path d="M618 1373L1054 1365L766 1299z" stroke="#f1f9fa" fill="#f1f9fa" style="animation-play-state:paused" ></path>
<path d="M378 22L185 274L391 258z" stroke="#fbfbfb" fill="#fbfbfb" style="animation-play-state:paused" ></path>
<path d="M391 258L185 274L322 411z" stroke="#f8f9fb" fill="#f8f9fb" style="animation-play-state:paused" ></path>
<path d="M1447 204L1203 182L1266 466z" stroke="#f5f6f7" fill="#f5f6f7" style="animation-play-state:paused" ></path>
<path d="M985 186L800 1L772 194z" stroke="#f9fafb" fill="#f9fafb" style="animation-play-state:paused" ></path>
<path d="M772 194L579 2L612 257z" stroke="#f9fafb" fill="#f9fafb" style="animation-play-state:paused" ></path>
<path d="M1061 40L800 1L985 186z" stroke="#fafafa" fill="#fafafa" style="animation-play-state:paused" ></path>
<path d="M185 274L79 390L322 411z" stroke="#f8f9fb" fill="#f8f9fb" style="animation-play-state:paused" ></path>
<path d="M-70 1129L196 1173L170 925z" stroke="#f3f5f7" fill="#f3f5f7" style="animation-play-state:paused" ></path>
<path d="M800 1L579 2L772 194z" stroke="#fbfbfb" fill="#fbfbfb" style="animation-play-state:paused" ></path>
<path d="M1054 1365L1216 1305L999 1088z" stroke="#f1f9fa" fill="#f1f9fa" style="animation-play-state:paused" ></path>
<path d="M1203 182L1061 40L985 186z" stroke="#f8f9fa" fill="#f8f9fa" style="animation-play-state:paused" ></path>
<path d="M1216 1305L1424 1069L1193 1059z" stroke="#f1f9fa" fill="#f1f9fa" style="animation-play-state:paused" ></path>
<path d="M1426 627L1447 426L1266 466z" stroke="#f3f6f8" fill="#f3f6f8" style="animation-play-state:paused" ></path>
<path d="M1203 182L1187 -56L1061 40z" stroke="#f9fafb" fill="#f9fafb" style="animation-play-state:paused" ></path>
<path d="M1626 604L1447 426L1426 627z" stroke="#f2f6f9" fill="#f2f6f9" style="animation-play-state:paused" ></path>
<path d="M579 2L378 22L391 258z" stroke="#fbfbfb" fill="#fbfbfb" style="animation-play-state:paused" ></path>
<path d="M-93 218L-96 436L79 390z" stroke="#fbfbfb" fill="#fbfbfb" style="animation-play-state:paused" ></path>
<path d="M1424 1069L1517 940L1242 886z" stroke="#f1f9fa" fill="#f1f9fa" style="animation-play-state:paused" ></path>
<path d="M321 1297L156 1355L618 1373z" stroke="#f2f8fa" fill="#f2f8fa" style="animation-play-state:paused" ></path>
<path d="M196 1173L156 1355L321 1297z" stroke="#f2f6f9" fill="#f2f6f9" style="animation-play-state:paused" ></path>
<path d="M-146 831L170 925L137 670z" stroke="#f4f5f7" fill="#f4f5f7" style="animation-play-state:paused" ></path>
<path d="M-96 436L-114 641L137 670z" stroke="#f7f8fa" fill="#f7f8fa" style="animation-play-state:paused" ></path>
<path d="M-93 218L79 390L185 274z" stroke="#fbfbfb" fill="#fbfbfb" style="animation-play-state:paused" ></path>
<path d="M79 390L-96 436L137 670z" stroke="#f8f9fa" fill="#f8f9fa" style="animation-play-state:paused" ></path>
<path d="M-265 933L-146 831L-340 636z" stroke="#f7f8f9" fill="#f7f8f9" style="animation-play-state:paused" ></path>
<path d="M-114 641L-146 831L137 670z" stroke="#f6f7f9" fill="#f6f7f9" style="animation-play-state:paused" ></path>
<path d="M1627 384L1447 204L1447 426z" stroke="#f3f5f6" fill="#f3f5f6" style="animation-play-state:paused" ></path>
<path d="M1447 426L1447 204L1266 466z" stroke="#f3f4f6" fill="#f3f4f6" style="animation-play-state:paused" ></path>
<path d="M-146 831L-70 1129L170 925z" stroke="#f4f5f7" fill="#f4f5f7" style="animation-play-state:paused" ></path>
<path d="M1517 940L1626 604L1426 627z" stroke="#f1f9fa" fill="#f1f9fa" style="animation-play-state:paused" ></path>
<path d="M180 -175L159 26L378 22z" stroke="#fefefe" fill="#fefefe" style="animation-play-state:paused" ></path>
<path d="M378 22L159 26L185 274z" stroke="#fcfcfc" fill="#fcfcfc" style="animation-play-state:paused" ></path>
<path d="M1495 30L1187 -56L1203 182z" stroke="#f9fafb" fill="#f9fafb" style="animation-play-state:paused" ></path>
<path d="M1061 40L1057 -187L800 1z" stroke="#fcfcfc" fill="#fcfcfc" style="animation-play-state:paused" ></path>
<path d="M575 -224L416 -161L579 2z" stroke="#fefefe" fill="#fefefe" style="animation-play-state:paused" ></path>
<path d="M579 2L416 -161L378 22z" stroke="#fdfdfd" fill="#fdfdfd" style="animation-play-state:paused" ></path>
<path d="M575 -224L579 2L800 1z" stroke="#fdfdfd" fill="#fdfdfd" style="animation-play-state:paused" ></path>
<path d="M1447 204L1495 30L1203 182z" stroke="#f7f8f9" fill="#f7f8f9" style="animation-play-state:paused" ></path>
<path d="M1626 604L1627 384L1447 426z" stroke="#f3f5f8" fill="#f3f5f8" style="animation-play-state:paused" ></path>
<path d="M755 -266L575 -224L800 1z" stroke="#fefefe" fill="#fefefe" style="animation-play-state:paused" ></path>
<path d="M159 26L-93 218L185 274z" stroke="#fcfcfc" fill="#fcfcfc" style="animation-play-state:paused" ></path>
<path d="M-340 636L-146 831L-114 641z" stroke="#f7f8fa" fill="#f7f8fa" style="animation-play-state:paused" ></path>
<path d="M1182 -283L1057 -187L1187 -56z" stroke="#fdfdfd" fill="#fdfdfd" style="animation-play-state:paused" ></path>
<path d="M1187 -56L1057 -187L1061 40z" stroke="#fcfcfc" fill="#fcfcfc" style="animation-play-state:paused" ></path>
<path d="M1057 -187L755 -266L800 1z" stroke="#fdfdfd" fill="#fdfdfd" style="animation-play-state:paused" ></path>
<path d="M1216 1305L1506 1372L1424 1069z" stroke="#eef9fa" fill="#eef9fa" style="animation-play-state:paused" ></path>
<path d="M1746 1169L1729 929L1517 940z" stroke="#f1f9fa" fill="#f1f9fa" style="animation-play-state:paused" ></path>
<path d="M1517 940L1729 929L1626 604z" stroke="#f1f9fa" fill="#f1f9fa" style="animation-play-state:paused" ></path>
<path d="M1054 1365L1506 1372L1216 1305z" stroke="#eff9fa" fill="#eff9fa" style="animation-play-state:paused" ></path>
<path d="M618 1373L1506 1372L1054 1365z" stroke="#f1f9fa" fill="#f1f9fa" style="animation-play-state:paused" ></path>
<path d="M1746 1169L1517 940L1424 1069z" stroke="#f1f9fa" fill="#f1f9fa" style="animation-play-state:paused" ></path>
<path d="M1626 604L1671 206L1627 384z" stroke="#f3f4f7" fill="#f3f4f7" style="animation-play-state:paused" ></path>
<path d="M-272 483L-114 641L-96 436z" stroke="#f9fafb" fill="#f9fafb" style="animation-play-state:paused" ></path>
<path d="M-146 831L-265 933L-70 1129z" stroke="#f5f6f8" fill="#f5f6f8" style="animation-play-state:paused" ></path>
<path d="M-70 1129L-111 1310L156 1355z" stroke="#f3f5f7" fill="#f3f5f7" style="animation-play-state:paused" ></path>
<path d="M-259 1162L-111 1310L-70 1129z" stroke="#f4f5f7" fill="#f4f5f7" style="animation-play-state:paused" ></path>
<path d="M-279 253L-272 483L-96 436z" stroke="#fbfbfb" fill="#fbfbfb" style="animation-play-state:paused" ></path>
<path d="M1671 206L1495 30L1447 204z" stroke="#f7f8f9" fill="#f7f8f9" style="animation-play-state:paused" ></path>
<path d="M416 -161L180 -175L378 22z" stroke="#fefefe" fill="#fefefe" style="animation-play-state:paused" ></path>
<path d="M159 26L-79 10L-93 218z" stroke="#fdfdfd" fill="#fdfdfd" style="animation-play-state:paused" ></path>
<path d="M575 -224L180 -175L416 -161z" stroke="#ffffff" fill="#ffffff" style="animation-play-state:paused" ></path>
<path d="M-93 -226L180 -175L575 -224z" stroke="#ffffff" fill="#ffffff" style="animation-play-state:paused" ></path>
<path d="M1506 1372L1644 1289L1424 1069z" stroke="#ebf8f9" fill="#ebf8f9" style="animation-play-state:paused" ></path>
<path d="M-272 483L-340 636L-114 641z" stroke="#f9fafb" fill="#f9fafb" style="animation-play-state:paused" ></path>
<path d="M1729 929L1671 206L1626 604z" stroke="#f2f7f9" fill="#f2f7f9" style="animation-play-state:paused" ></path>
<path d="M1627 384L1671 206L1447 204z" stroke="#f5f6f7" fill="#f5f6f7" style="animation-play-state:paused" ></path>
<path d="M-340 636L-259 1162L-265 933z" stroke="#f6f7f9" fill="#f6f7f9" style="animation-play-state:paused" ></path>
<path d="M-265 933L-259 1162L-70 1129z" stroke="#f5f6f7" fill="#f5f6f7" style="animation-play-state:paused" ></path>
<path d="M180 -175L-79 10L159 26z" stroke="#ffffff" fill="#ffffff" style="animation-play-state:paused" ></path>
<path d="M-93 218L-279 253L-96 436z" stroke="#fcfcfc" fill="#fcfcfc" style="animation-play-state:paused" ></path>
<path d="M-272 483L-279 253L-340 636z" stroke="#fbfbfb" fill="#fbfbfb" style="animation-play-state:paused" ></path>
<path d="M1644 1289L1746 1169L1424 1069z" stroke="#edf9fa" fill="#edf9fa" style="animation-play-state:paused" ></path>
<path d="M1057 -187L1182 -283L755 -266z" stroke="#fefefe" fill="#fefefe" style="animation-play-state:paused" ></path>
<path d="M1465 -222L1182 -283L1187 -56z" stroke="#fdfdfd" fill="#fdfdfd" style="animation-play-state:paused" ></path>
<path d="M-268 42L-279 253L-93 218z" stroke="#fefefe" fill="#fefefe" style="animation-play-state:paused" ></path>
<path d="M-340 636L-258 1384L-259 1162z" stroke="#f5f7f8" fill="#f5f7f8" style="animation-play-state:paused" ></path>
<path d="M-259 1162L-258 1384L-111 1310z" stroke="#f4f5f7" fill="#f4f5f7" style="animation-play-state:paused" ></path>
<path d="M-111 1310L-258 1384L156 1355z" stroke="#f3f4f6" fill="#f3f4f6" style="animation-play-state:paused" ></path>
<path d="M156 1355L-258 1384L618 1373z" stroke="#f2f6f9" fill="#f2f6f9" style="animation-play-state:paused" ></path>
<path d="M618 1373L-258 1384L1506 1372z" stroke="#f1f9fa" fill="#f1f9fa" style="animation-play-state:paused" ></path>
<path d="M1671 206L1678 -10L1495 30z" stroke="#f8f9fa" fill="#f8f9fa" style="animation-play-state:paused" ></path>
<path d="M1495 30L1465 -222L1187 -56z" stroke="#fbfbfb" fill="#fbfbfb" style="animation-play-state:paused" ></path>
<path d="M1706 -203L1678 -10L1671 206z" stroke="#fafafa" fill="#fafafa" style="animation-play-state:paused" ></path>
<path d="M1706 -203L1671 206L1729 929z" stroke="#f4f5f7" fill="#f4f5f7" style="animation-play-state:paused" ></path>
<path d="M1678 -10L1465 -222L1495 30z" stroke="#fbfbfb" fill="#fbfbfb" style="animation-play-state:paused" ></path>
<path d="M-279 253L-367 -278L-340 636z" stroke="#fefefe" fill="#fefefe" style="animation-play-state:paused" ></path>
<path d="M-79 10L-268 42L-93 218z" stroke="#fefefe" fill="#fefefe" style="animation-play-state:paused" ></path>
<path d="M-93 -226L-268 42L-79 10z" stroke="#ffffff" fill="#ffffff" style="animation-play-state:paused" ></path>
<path d="M755 -266L-93 -226L575 -224z" stroke="#ffffff" fill="#ffffff" style="animation-play-state:paused" ></path>
<path d="M180 -175L-93 -226L-79 10z" stroke="#ffffff" fill="#ffffff" style="animation-play-state:paused" ></path>
<path d="M1746 1169L1706 -203L1729 929z" stroke="#f2f8fa" fill="#f2f8fa" style="animation-play-state:paused" ></path>
<path d="M1678 -10L1706 -203L1465 -222z" stroke="#fcfcfc" fill="#fcfcfc" style="animation-play-state:paused" ></path>
<path d="M1465 -222L1706 -203L1182 -283z" stroke="#fdfdfd" fill="#fdfdfd" style="animation-play-state:paused" ></path>
<path d="M755 -266L-367 -278L-93 -226z" stroke="#ffffff" fill="#ffffff" style="animation-play-state:paused" ></path>
<path d="M-93 -226L-367 -278L-268 42z" stroke="#ffffff" fill="#ffffff" style="animation-play-state:paused" ></path>
<path d="M-268 42L-367 -278L-279 253z" stroke="#ffffff" fill="#ffffff" style="animation-play-state:paused" ></path>
<path d="M1182 -283L-367 -278L755 -266z" stroke="#ffffff" fill="#ffffff" style="animation-play-state:paused" ></path></g>
<style type="text/css" style="animation-play-state:paused" >#bk-0.4051140518046147 path { stroke-width: 1 }</style></g></svg>