<svg xmlns="http://www.w3.org/2000/svg" width="20" height="21" viewBox="0 0 20 21" fill="none"><path d="M18.2 8.9H17.5V8.8H10V12.2H14.7C14 14.1 12.2 15.5 10 15.5 7.2 15.5 5 13.3 5 10.5 5 7.7 7.2 5.5 10 5.5 11.3 5.5 12.4 6 13.3 6.8L15.7 4.4C14.2 3 12.2 2.2 10 2.2 5.4 2.2 1.7 5.9 1.7 10.5 1.7 15.1 5.4 18.8 10 18.8 14.6 18.8 18.3 15.1 18.3 10.5 18.3 9.9 18.3 9.4 18.2 8.9Z" fill="#FBC02D"/><path d="M2.6 6.6L5.4 8.6C6.1 6.8 7.9 5.5 10 5.5 11.3 5.5 12.4 6 13.3 6.8L15.7 4.4C14.2 3 12.2 2.2 10 2.2 6.8 2.2 4 4 2.6 6.6Z" fill="#E53935"/><path d="M10 18.8C12.2 18.8 14.1 18 15.6 16.7L13 14.5C12.2 15.1 11.1 15.5 10 15.5 7.8 15.5 6 14.1 5.3 12.2L2.6 14.3C4 17 6.8 18.8 10 18.8Z" fill="#4CAF50"/><path d="M18.2 8.9L18.2 8.8H17.5 10V12.2H14.7C14.4 13.1 13.8 13.9 13 14.5 13 14.5 13 14.5 13 14.5L15.6 16.7C15.4 16.8 18.3 14.7 18.3 10.5 18.3 9.9 18.3 9.4 18.2 8.9Z" fill="#1565C0"/></svg>