<svg xmlns="http://www.w3.org/2000/svg" width="188" height="36" viewBox="0 0 188 36" fill="none"><style>.a{fill:#01474F;}.b{fill:#F9FAFB;}</style><path d="M40.8 26H43V13.6L48.6 26H50.1L55.6 13.6V26H57.8V9.4H55.5L49.3 23.1 43.2 9.4H40.8V26ZM60.7 19.4C60.7 23.5 63.4 26.2 66.9 26.2 69.3 26.2 71 25 71.8 23.6V26H74V12.8H71.8V15.2C71.1 13.9 69.4 12.6 66.9 12.6 63.4 12.6 60.7 15.3 60.7 19.4ZM71.8 19.4C71.8 22.5 69.8 24.3 67.4 24.3 65 24.3 62.9 22.5 62.9 19.4 62.9 16.3 65 14.5 67.4 14.5 69.8 14.5 71.8 16.4 71.8 19.4ZM78.2 22.4C78.2 25 79.5 26 81.9 26H83.8V24.2H82.2C80.9 24.2 80.4 23.7 80.4 22.4V14.6H83.8V12.8H80.4V9.5H78.2V12.8H76.5V14.6H78.2V22.4ZM85.7 19.4C85.7 23.6 88.3 26.2 92.1 26.2 95.3 26.2 97.5 24.4 98.1 21.8H95.8C95.3 23.4 94 24.4 92.1 24.4 89.7 24.4 87.9 22.7 87.9 19.4 87.9 16.2 89.7 14.5 92.1 14.5 94 14.5 95.3 15.5 95.8 17.1H98.1C97.5 14.3 95.3 12.6 92.1 12.6 88.3 12.6 85.7 15.3 85.7 19.4ZM101.1 26H103.2V18.7C103.2 15.9 104.8 14.5 107 14.5 109.2 14.5 110.7 15.9 110.7 18.6V26H112.8V18.2C112.8 14.5 110.5 12.6 107.6 12.6 105.7 12.6 104.1 13.4 103.2 14.7V8.2H101.1V26ZM116.4 26H118.6V13.6L124.1 26H125.7L131.2 13.6V26H133.4V9.4H131.1L124.9 23.1 118.8 9.4H116.4V26ZM142.7 14.5C144.9 14.5 146.9 15.9 146.8 18.5H138.5C138.8 15.9 140.5 14.5 142.7 14.5ZM148.8 21.9H146.5C146 23.4 144.7 24.4 142.8 24.4 140.5 24.4 138.7 22.9 138.5 20.2H149C149.1 19.8 149.1 19.4 149.1 18.9 149.1 15.3 146.6 12.6 142.8 12.6 138.9 12.6 136.3 15.2 136.3 19.4 136.3 23.6 139 26.2 142.8 26.2 146 26.2 148.1 24.3 148.8 21.9Z" fill="#14ACBD"/><path d="M152 26H154.1V13.6L159.7 26H161.2L166.7 13.6V26H168.9V9.4H166.6L160.5 23.1 154.3 9.4H152V26ZM177.8 9.3H172.6V26H177.8C183.3 26 186.7 22.9 186.7 17.7 186.7 12.5 183.3 9.3 177.8 9.3ZM174.8 24.2V11H177.8C182.2 11 184.5 13.6 184.5 17.7 184.5 21.8 182.2 24.2 177.8 24.2H174.8Z" class="a"/><path d="M27.9 1H5.1C2.3 1 0 3.3 0 6.1V28.9C0 31.7 2.3 34 5.1 34H27.9C30.7 34 33 31.7 33 28.9V6.1C33 3.3 30.7 1 27.9 1Z" class="a"/><path d="M6 21L12 24.5 6 29V21Z" class="b"/><path d="M21 24.4L27 21V29L21 24.4Z" class="b"/><path d="M16.5 16C18.4 16 20 14.2 20 12 20 9.8 18.4 8 16.5 8 14.6 8 13 9.8 13 12 13 14.2 14.6 16 16.5 16Z" class="b"/><path d="M27 12V18.9L20.9 21.9C19.5 22.6 17.9 23 16.3 23 14.8 23 13.2 22.6 11.8 21.9L6 18.9V12.6L14.1 16.8C14.8 17.1 15.5 17.3 16.3 17.3 17.1 17.3 17.9 17.1 18.6 16.7L27 12Z" class="b"/></svg>