<svg width="20" height="21" viewBox="0 0 20 21" fill="none" xmlns="http://www.w3.org/2000/svg">
<path d="M18.1713 8.86794H17.5V8.83335H10V12.1667H14.7096C14.0225 14.1071 12.1763 15.5 10 15.5C7.23876 15.5 5.00001 13.2613 5.00001 10.5C5.00001 7.73877 7.23876 5.50002 10 5.50002C11.2746 5.50002 12.4342 5.98085 13.3171 6.76627L15.6742 4.40919C14.1858 3.0221 12.195 2.16669 10 2.16669C5.39792 2.16669 1.66667 5.89794 1.66667 10.5C1.66667 15.1021 5.39792 18.8334 10 18.8334C14.6021 18.8334 18.3333 15.1021 18.3333 10.5C18.3333 9.94127 18.2758 9.39585 18.1713 8.86794Z" fill="#FBC02D"/>
<path d="M2.62749 6.62127L5.36541 8.62919C6.10624 6.79502 7.90041 5.50002 10 5.50002C11.2746 5.50002 12.4342 5.98085 13.3171 6.76627L15.6742 4.40919C14.1858 3.0221 12.195 2.16669 10 2.16669C6.79916 2.16669 4.02333 3.97377 2.62749 6.62127Z" fill="#E53935"/>
<path d="M9.99999 18.8333C12.1525 18.8333 14.1083 18.0096 15.5871 16.67L13.0079 14.4875C12.1712 15.1212 11.1312 15.5 9.99999 15.5C7.8325 15.5 5.99208 14.1179 5.29875 12.1891L2.58125 14.2829C3.96041 16.9816 6.76125 18.8333 9.99999 18.8333Z" fill="#4CAF50"/>
<path d="M18.1713 8.8679L18.1646 8.83331H17.5H10V12.1666H14.7096C14.3796 13.0987 13.78 13.9025 13.0067 14.4879C13.0071 14.4875 13.0075 14.4875 13.0079 14.4871L15.5871 16.6696C15.4046 16.8354 18.3333 14.6666 18.3333 10.5C18.3333 9.94123 18.2758 9.39581 18.1713 8.8679Z" fill="#1565C0"/>
</svg>
