<svg width="188" height="36" viewBox="0 0 188 36" fill="none" xmlns="http://www.w3.org/2000/svg">
<path d="M40.848 26H43.032V13.592L48.576 26H50.112L55.632 13.616V26H57.816V9.392H55.488L49.344 23.12L43.2 9.392H40.848V26ZM60.7039 19.376C60.7039 23.456 63.4159 26.216 66.9199 26.216C69.3439 26.216 71.0479 24.968 71.8399 23.552V26H74.0479V12.848H71.8399V15.248C71.0719 13.88 69.3919 12.632 66.9439 12.632C63.4159 12.632 60.7039 15.272 60.7039 19.376ZM71.8399 19.4C71.8399 22.496 69.7759 24.296 67.3759 24.296C64.9759 24.296 62.9359 22.472 62.9359 19.376C62.9359 16.28 64.9759 14.528 67.3759 14.528C69.7759 14.528 71.8399 16.352 71.8399 19.4ZM78.2186 22.4C78.2186 25.04 79.5386 26 81.8666 26H83.8346V24.152H82.2266C80.8826 24.152 80.4026 23.696 80.4026 22.4V14.648H83.8346V12.848H80.4026V9.536H78.2186V12.848H76.5146V14.648H78.2186V22.4ZM85.6648 19.4C85.6648 23.576 88.3288 26.216 92.0728 26.216C95.3368 26.216 97.4728 24.392 98.1448 21.776H95.7928C95.3128 23.432 94.0168 24.368 92.0728 24.368C89.6728 24.368 87.8968 22.664 87.8968 19.4C87.8968 16.184 89.6728 14.48 92.0728 14.48C94.0168 14.48 95.3368 15.488 95.7928 17.072H98.1448C97.4728 14.312 95.3368 12.632 92.0728 12.632C88.3288 12.632 85.6648 15.272 85.6648 19.4ZM101.059 26H103.243V18.728C103.243 15.896 104.779 14.504 107.011 14.504C109.219 14.504 110.683 15.872 110.683 18.56V26H112.843V18.248C112.843 14.48 110.515 12.608 107.587 12.608C105.739 12.608 104.107 13.352 103.243 14.744V8.24H101.059V26ZM116.411 26H118.595V13.592L124.139 26H125.675L131.195 13.616V26H133.379V9.392H131.051L124.907 23.12L118.763 9.392H116.411V26ZM142.674 14.48C144.93 14.48 146.85 15.896 146.826 18.464H138.522C138.762 15.896 140.538 14.48 142.674 14.48ZM148.818 21.944H146.466C145.986 23.36 144.738 24.368 142.77 24.368C140.538 24.368 138.666 22.904 138.498 20.24H149.01C149.058 19.784 149.082 19.4 149.082 18.92C149.082 15.32 146.586 12.632 142.77 12.632C138.93 12.632 136.266 15.248 136.266 19.4C136.266 23.576 139.026 26.216 142.77 26.216C146.034 26.216 148.146 24.344 148.818 21.944Z" fill="#14ACBD"/>
<path d="M151.965 26H154.149V13.592L159.693 26H161.229L166.749 13.616V26H168.933V9.392H166.605L160.461 23.12L154.317 9.392H151.965V26ZM177.845 9.272H172.637V26H177.845C183.341 26 186.725 22.856 186.725 17.672C186.725 12.488 183.341 9.272 177.845 9.272ZM174.821 24.2V11.048H177.845C182.213 11.048 184.493 13.592 184.493 17.672C184.493 21.752 182.213 24.2 177.845 24.2H174.821Z" fill="#01474F"/>
<path d="M27.859 1H5.14096C2.30169 1 0 3.30169 0 6.14096V28.859C0 31.6983 2.30169 34 5.14096 34H27.859C30.6983 34 33 31.6983 33 28.859V6.14096C33 3.30169 30.6983 1 27.859 1Z" fill="#01474F"/>
<path d="M6 21L12 24.4835L6 29V21Z" fill="#F9FAFB"/>
<path d="M21 24.4255L27 21V29L21 24.4255Z" fill="#F9FAFB"/>
<path d="M16.5 16C18.433 16 20 14.2091 20 12C20 9.79086 18.433 8 16.5 8C14.567 8 13 9.79086 13 12C13 14.2091 14.567 16 16.5 16Z" fill="#F9FAFB"/>
<path d="M27 12V18.8976L20.9101 21.9415C19.4998 22.6466 17.9346 23.0097 16.3482 22.9998C14.7619 22.9899 13.2016 22.6073 11.8008 21.8847L6 18.8976V12.6251L14.0516 16.7736C14.7527 17.1351 15.5368 17.3179 16.3306 17.3048C17.1243 17.2918 17.9017 17.0833 18.5898 16.699L27 12Z" fill="#F9FAFB"/>
</svg>
